/* XPM */
static char *j_alice_xpm[]={
"32 32 3 1",
". c None",
"a c #000000",
"# c #0000ff",
"............#######.............",
".........#############..........",
".......#######aaaaaa####........",
"......########aaaaaa#####.......",
".....#########aaaaaa######......",
"....##########aaaaaa#######.....",
"...###########aaaaaa########....",
"..############aaaaaa#########...",
"..############aaaaaa#########...",
".#############aaaaaa##########..",
".#############aaaaaa##########..",
".#############aaaaaa##########..",
"##############aaaaaa###########.",
"##############aaaaaa###########.",
"##############aaaaaa###########.",
"##############aaaaaa###########.",
"##############aaaaaa###########.",
"##############aaaaaa###########.",
"#####aaaaaa###aaaaaa###########.",
".####aaaaaa###aaaaaa##########..",
".####aaaaaa###aaaaaa##########..",
".####aaaaaa###aaaaaa##########..",
"..###aaaaaaaaaaaaaaa#########...",
"..###aaaaaaaaaaaaaaa#########...",
"...##aaaaaaaaaaaaaaa########....",
"....###aaaaaaaaaaaaa#######.....",
".....##aaaaaaaaaaaaa######......",
"......###################.......",
".......#################........",
".........#############..........",
"............#######.............",
"................................"};
